<?xml version="1.0" encoding="UTF-8" standalone="no"?>
<svg
   xmlns:dc="http://purl.org/dc/elements/1.1/"
   xmlns:cc="http://creativecommons.org/ns#"
   xmlns:rdf="http://www.w3.org/1999/02/22-rdf-syntax-ns#"
   xmlns:svg="http://www.w3.org/2000/svg"
   xmlns="http://www.w3.org/2000/svg"
   xmlns:sodipodi="http://sodipodi.sourceforge.net/DTD/sodipodi-0.dtd"
   xmlns:inkscape="http://www.inkscape.org/namespaces/inkscape"
   version="1.1"
   id="Layer_1"
   x="0px"
   y="0px"
   viewBox="0 0 399.99998 399.99999"
   xml:space="preserve"
   sodipodi:docname="ThenTryThis_final for web NEW PINK.svg"
   inkscape:version="0.92.5 (2060ec1f9f, 2020-04-08)"
   width="400"
   height="400"><metadata
   id="metadata997"><rdf:RDF><cc:Work
       rdf:about=""><dc:format>image/svg+xml</dc:format><dc:type
         rdf:resource="http://purl.org/dc/dcmitype/StillImage" /><dc:title /></cc:Work></rdf:RDF></metadata><defs
   id="defs995"><rect
   x="-430.80609"
   y="-959.32434"
   width="1324.4752"
   height="811.4444"
   id="rect2973" />
	
	
	
	
	
	
	
	
	
	
	
	
	
	
	
	
	
	
	
	
	
	
	
	
	
<rect
   x="-430.80609"
   y="-959.32434"
   width="1324.4752"
   height="811.4444"
   id="rect2973-7" /><rect
   x="-430.80609"
   y="-959.32434"
   width="1324.4752"
   height="811.4444"
   id="rect3221" />
		
		
		
		
		
	
	
	
	
	
	
	
	
	
	
	
	
	
	
	
	
	
	
<rect
   x="-430.80609"
   y="-959.32434"
   width="1324.4752"
   height="811.4444"
   id="rect2973-7-0" /><rect
   x="-430.80609"
   y="-959.32434"
   width="1324.4752"
   height="811.4444"
   id="rect4695" /><rect
   x="-430.80609"
   y="-959.32434"
   width="1324.4752"
   height="811.4444"
   id="rect2973-7-0-3" /><rect
   x="-430.80609"
   y="-959.32434"
   width="1324.4752"
   height="811.4444"
   id="rect4732" /><rect
   x="-430.80609"
   y="-959.32434"
   width="1324.4752"
   height="811.4444"
   id="rect2973-7-0-9" /><rect
   x="-430.80609"
   y="-959.32434"
   width="1324.4752"
   height="811.4444"
   id="rect4732-2" /></defs><sodipodi:namedview
   pagecolor="#ffffff"
   bordercolor="#666666"
   borderopacity="1"
   objecttolerance="10"
   gridtolerance="10"
   guidetolerance="10"
   inkscape:pageopacity="0"
   inkscape:pageshadow="2"
   inkscape:window-width="1848"
   inkscape:window-height="1016"
   id="namedview993"
   showgrid="false"
   showguides="true"
   inkscape:guide-bbox="true"
   inkscape:zoom="1.1920543"
   inkscape:cx="157.13134"
   inkscape:cy="148.35313"
   inkscape:window-x="72"
   inkscape:window-y="27"
   inkscape:window-maximized="1"
   inkscape:current-layer="g1274"
   inkscape:document-rotation="0"><sodipodi:guide
     position="199.99999,269.28303"
     orientation="1,0"
     id="guide1276"
     inkscape:locked="false"
     inkscape:label=""
     inkscape:color="rgb(0,0,255)" /><sodipodi:guide
     position="-114.08876,199.99999"
     orientation="0,1"
     id="guide1278"
     inkscape:locked="false"
     inkscape:label=""
     inkscape:color="rgb(0,0,255)" /></sodipodi:namedview>
<style
   type="text/css"
   id="style942">
	.st0{fill:#5B5C5E;}
</style>



<style
   type="text/css"
   id="style1094">
	.st0{fill:#5B5C5E;}
</style><style
   type="text/css"
   id="style1447">
	.st0{fill:#1D6052;}
	.st1{fill:none;}
	.st2{fill:#FFFFFF;}
</style><style
   type="text/css"
   id="style2092">
	.st0{fill:#F08DB9;}
	.st1{fill:none;}
	.st2{fill:#FFFFFF;}
</style><style
   type="text/css"
   id="style2282">
	.st0{fill:#B9CCD3;}
	.st1{fill:none;}
	.st2{fill:#FFFFFF;}
</style><style
   type="text/css"
   id="style2557">
	.st0{fill:none;}
	.st1{fill:#FFFFFF;}
	.st2{fill:#1D6052;}
</style><style
   type="text/css"
   id="style3333">
	.st0{fill:none;}
	.st1{fill:#FFFFFF;}
	.st2{fill:#1D6052;}
</style><style
   type="text/css"
   id="style3861">
	.st0{fill:#5B5C5E;}
</style><g
   id="g1274"
   transform="matrix(0.84681175,0,0,0.84681175,-78.112786,370.01776)"
   style="stroke-width:1.18089998"><circle
     r="229.99998"
     inkscape:export-filename="/home/amber/Desktop/NEW BIZ/Final logos/pink round with text.png"
     inkscape:export-ydpi="300"
     inkscape:export-xdpi="300"
     style="fill:#ef007c;fill-opacity:1;stroke-width:1.18089998"
     id="circle2573-5-6-9-6"
     cy="-200.07062"
     cx="328.82159"
     class="st2" /><path
     inkscape:connector-curvature="0"
     inkscape:export-filename="/home/amber/Desktop/NEW BIZ/Final logos/pink round with text.png"
     inkscape:export-ydpi="300"
     inkscape:export-xdpi="300"
     style="fill:#ffffff;fill-opacity:1;stroke-width:1.18089759"
     id="path944-85-8-1-0-15-1"
     d="m 350.39718,-139.026 c 0.071,-0.029 0.1175,-0.1116 0.1763,-0.1704 -0.024,-0.029 -0.041,-0.059 -0.065,-0.082 -0.1175,0.047 -0.2351,0.088 -0.3527,0.1352 0.01,0.035 0.01,0.071 0.012,0.1117 0.076,0 0.1646,0.035 0.2293,0.01 z"
     class="st0" /><path
     inkscape:connector-curvature="0"
     inkscape:export-filename="/home/amber/Desktop/NEW BIZ/Final logos/pink round with text.png"
     inkscape:export-ydpi="300"
     inkscape:export-xdpi="300"
     style="fill:#ffffff;fill-opacity:1;stroke-width:1.18089759"
     id="path946-6-3-0-6-4-5"
     d="m 359.16738,-283.1462 h -24.9174 c -0.629,0 -1.0816,0.5114 -1.0816,1.0816 v 4.6731 c 0,0.5702 0.4585,1.0816 1.0816,1.0816 h 8.7231 v 31.9889 c 0,0.5701 0.5114,1.0815 1.0816,1.0815 h 5.3021 c 0.5702,0 1.0816,-0.5114 1.0816,-1.0815 v -31.9889 h 8.7231 c 0.6289,0 1.0816,-0.5114 1.0816,-1.0816 v -4.6731 c 0.012,-0.5702 -0.4468,-1.0816 -1.0757,-1.0816 z"
     class="st0" /><path
     inkscape:connector-curvature="0"
     inkscape:export-filename="/home/amber/Desktop/NEW BIZ/Final logos/pink round with text.png"
     inkscape:export-ydpi="300"
     inkscape:export-xdpi="300"
     style="fill:#ffffff;fill-opacity:1;stroke-width:1.18089759"
     id="path948-1-8-6-4-1-0"
     d="m 404.67008,-283.1462 h -5.2434 c -0.6289,0 -1.0816,0.5114 -1.0816,1.0816 v 15.1068 h -18.5866 v -15.1068 c 0,-0.5702 -0.4585,-1.0816 -1.0816,-1.0816 h -5.3021 c -0.5701,0 -1.0815,0.5114 -1.0815,1.0816 v 37.7436 c 0,0.5701 0.5114,1.0815 1.0815,1.0815 h 5.3021 c 0.629,0 1.0816,-0.5114 1.0816,-1.0815 v -15.7358 h 18.5866 v 15.7358 c 0,0.5701 0.4586,1.0815 1.0816,1.0815 h 5.2434 c 0.5701,0 1.0816,-0.5114 1.0816,-1.0815 v -37.7436 c 0,-0.5702 -0.5115,-1.0816 -1.0816,-1.0816 z"
     class="st0" /><path
     inkscape:connector-curvature="0"
     inkscape:export-filename="/home/amber/Desktop/NEW BIZ/Final logos/pink round with text.png"
     inkscape:export-ydpi="300"
     inkscape:export-xdpi="300"
     style="fill:#ffffff;fill-opacity:1;stroke-width:1.18089759"
     id="path950-1-5-1-6-5-6"
     d="m 422.23398,-243.2395 h 23.2068 c 0.629,0 1.0816,-0.5114 1.0816,-1.0815 v -4.6732 c 0,-0.5701 -0.4585,-1.0815 -1.0816,-1.0815 h -16.8761 v -9.9752 h 14.084 c 0.5702,0 1.0816,-0.4585 1.0816,-1.0816 v -4.7319 c 0,-0.5702 -0.5114,-1.0816 -1.0816,-1.0816 h -14.084 v -9.3639 h 16.8761 c 0.629,0 1.0816,-0.5114 1.0816,-1.0816 v -4.6731 c 0,-0.5702 -0.4585,-1.0816 -1.0816,-1.0816 h -23.2068 c -0.6291,0 -1.0816,0.5114 -1.0816,1.0816 v 37.7436 c -0.01,0.5701 0.4525,1.0815 1.0816,1.0815 z"
     class="st0" /><path
     inkscape:connector-curvature="0"
     inkscape:export-filename="/home/amber/Desktop/NEW BIZ/Final logos/pink round with text.png"
     inkscape:export-ydpi="300"
     inkscape:export-xdpi="300"
     style="fill:#ffffff;fill-opacity:1;stroke-width:1.18089759"
     id="path952-5-2-5-2-54-5"
     d="m 492.30718,-283.1462 h -5.2433 c -0.6289,0 -1.0815,0.5114 -1.0815,1.0816 v 23.5478 h -0.1117 l -23.2598,-24.7998 c -0.2822,-0.288 -0.5702,-0.3997 -0.9699,-0.3997 h -0.8523 c -0.5702,0 -1.0816,0.4585 -1.0816,1.0286 v 38.3725 c 0,0.5702 0.5114,1.0816 1.0816,1.0816 h 5.1903 c 0.629,0 1.0816,-0.5114 1.0816,-1.0816 v -24.5177 h 0.1117 l 23.3774,25.7698 c 0.2822,0.2821 0.5702,0.3997 0.9699,0.3997 h 0.7994 c 0.5702,0 1.0816,-0.4585 1.0816,-1.0287 v -38.3725 c -0.012,-0.5702 -0.5232,-1.0816 -1.0934,-1.0816 z"
     class="st0" /><path
     inkscape:connector-curvature="0"
     inkscape:export-filename="/home/amber/Desktop/NEW BIZ/Final logos/pink round with text.png"
     inkscape:export-ydpi="300"
     inkscape:export-xdpi="300"
     style="fill:#ffffff;fill-opacity:1;stroke-width:1.18089759"
     id="path954-9-2-9-5-9-0"
     d="m 359.16738,-230.8836 h -24.9174 c -0.629,0 -1.0816,0.5114 -1.0816,1.0816 v 4.6731 c 0,0.5702 0.4585,1.0816 1.0816,1.0816 h 8.7231 v 31.9888 c 0,0.5702 0.5114,1.0816 1.0816,1.0816 h 5.3021 c 0.5702,0 1.0816,-0.5114 1.0816,-1.0816 v -31.9888 h 8.7231 c 0.6289,0 1.0816,-0.5114 1.0816,-1.0816 v -4.6731 c 0.012,-0.5643 -0.4468,-1.0816 -1.0757,-1.0816 z"
     class="st0" /><path
     inkscape:connector-curvature="0"
     inkscape:export-filename="/home/amber/Desktop/NEW BIZ/Final logos/pink round with text.png"
     inkscape:export-ydpi="300"
     inkscape:export-xdpi="300"
     style="fill:#ffffff;fill-opacity:1;stroke-width:1.18089759"
     id="path956-8-2-4-8-8-8"
     d="m 393.66618,-207.1066 c 4.9611,-1.9926 8.4351,-6.2719 8.4351,-11.5152 0,-6.7834 -5.5901,-12.2559 -12.4264,-12.2559 h -16.306 c -0.6289,0 -1.0815,0.5114 -1.0815,1.0815 v 37.7436 c 0,0.5701 0.4585,1.0815 1.0815,1.0815 h 5.2433 c 0.5702,0 1.0816,-0.5114 1.0816,-1.0815 v -14.5426 h 6.3308 l 7.5827,15.1069 c 0.1118,0.2292 0.3998,0.5114 0.9112,0.5114 h 5.984 c 0.9698,0 1.3695,-0.9111 0.9698,-1.6518 z m -4.6203,-5.5842 h -9.2932 v -11.3448 h 9.2932 c 3.0214,0 5.643,2.51 5.643,5.5313 0,3.186 -2.6216,5.8135 -5.643,5.8135 z"
     class="st0" /><path
     inkscape:connector-curvature="0"
     inkscape:export-filename="/home/amber/Desktop/NEW BIZ/Final logos/pink round with text.png"
     inkscape:export-ydpi="300"
     inkscape:export-xdpi="300"
     style="fill:#ffffff;fill-opacity:1;stroke-width:1.18089759"
     id="path958-4-7-9-6-3-1"
     d="m 442.93078,-230.8836 h -5.8722 c -0.4585,0 -0.7406,0.2821 -0.9111,0.5114 l -9.1229,13.1141 -9.1228,-13.1141 c -0.1705,-0.2293 -0.4586,-0.5114 -0.9111,-0.5114 h -5.8136 c -0.9111,0 -1.3695,0.9111 -0.9111,1.6517 l 13.0025,19.0452 v 18.1341 c 0,0.5701 0.4585,1.0815 1.0815,1.0815 h 5.2433 c 0.5702,0 1.0816,-0.5114 1.0816,-1.0815 v -18.187 l 13.1729,-18.9864 c 0.4468,-0.7406 -0.01,-1.6576 -0.917,-1.6576 z"
     class="st0" /><path
     inkscape:connector-curvature="0"
     inkscape:export-filename="/home/amber/Desktop/NEW BIZ/Final logos/pink round with text.png"
     inkscape:export-ydpi="300"
     inkscape:export-xdpi="300"
     style="fill:#ffffff;fill-opacity:1;stroke-width:1.18089759"
     id="path960-8-0-0-2-8-2"
     d="m 359.16738,-178.6152 h -24.9174 c -0.629,0 -1.0816,0.5114 -1.0816,1.0816 v 4.6731 c 0,0.5702 0.4585,1.0816 1.0816,1.0816 h 8.7231 v 31.9888 c 0,0.5702 0.5114,1.0816 1.0816,1.0816 h 5.3021 c 0.5702,0 1.0816,-0.5114 1.0816,-1.0816 v -31.9888 h 8.7231 c 0.6289,0 1.0816,-0.5114 1.0816,-1.0816 v -4.6731 c 0.012,-0.5702 -0.4468,-1.0816 -1.0757,-1.0816 z"
     class="st0" /><path
     inkscape:connector-curvature="0"
     inkscape:export-filename="/home/amber/Desktop/NEW BIZ/Final logos/pink round with text.png"
     inkscape:export-ydpi="300"
     inkscape:export-xdpi="300"
     style="fill:#ffffff;fill-opacity:1;stroke-width:1.18089759"
     id="path962-1-3-9-8-5-2"
     d="m 404.67008,-178.6152 h -5.2434 c -0.6289,0 -1.0816,0.5114 -1.0816,1.0816 v 15.1068 h -18.5866 v -15.1068 c 0,-0.5702 -0.4585,-1.0816 -1.0816,-1.0816 h -5.3021 c -0.5701,0 -1.0815,0.5114 -1.0815,1.0816 v 37.7435 c 0,0.5702 0.5114,1.0816 1.0815,1.0816 h 5.3021 c 0.629,0 1.0816,-0.5114 1.0816,-1.0816 v -15.7358 h 18.5866 v 15.7358 c 0,0.5702 0.4586,1.0816 1.0816,1.0816 h 5.2434 c 0.5701,0 1.0816,-0.5114 1.0816,-1.0816 v -37.7435 c 0,-0.5702 -0.5115,-1.0816 -1.0816,-1.0816 z"
     class="st0" /><path
     inkscape:connector-curvature="0"
     inkscape:export-filename="/home/amber/Desktop/NEW BIZ/Final logos/pink round with text.png"
     inkscape:export-ydpi="300"
     inkscape:export-xdpi="300"
     style="fill:#ffffff;fill-opacity:1;stroke-width:1.18089759"
     id="path964-0-4-1-4-2-6"
     d="m 427.53598,-178.6152 h -5.302 c -0.5702,0 -1.0816,0.5114 -1.0816,1.0816 v 37.7435 c 0,0.5702 0.5114,1.0816 1.0816,1.0816 h 5.302 c 0.5702,0 1.0816,-0.5114 1.0816,-1.0816 v -37.7435 c 0,-0.5702 -0.5114,-1.0816 -1.0816,-1.0816 z"
     class="st0" /><path
     inkscape:connector-curvature="0"
     inkscape:export-filename="/home/amber/Desktop/NEW BIZ/Final logos/pink round with text.png"
     inkscape:export-ydpi="300"
     inkscape:export-xdpi="300"
     style="fill:#ffffff;fill-opacity:1;stroke-width:1.18089759"
     id="path966-3-6-7-7-22-9"
     d="m 456.10368,-162.3093 c -4.6201,-1.881 -6.7304,-3.7032 -6.7304,-6.3836 0,-2.1691 1.7693,-3.9913 5.0199,-3.9913 3.133,0 5.4726,1.5989 7.9238,3.139 0.6877,0.4584 1.54,0 1.9986,-0.6819 l 2.1631,-3.2506 c 0.3997,-0.5702 0.2292,-1.5401 -0.3409,-1.881 -1.1404,-0.8524 -5.5902,-3.8208 -11.4036,-3.8208 -9.0642,0 -12.8261,5.8722 -12.8261,10.9451 0,6.7304 5.3608,10.1456 10.7217,12.3147 4.7906,1.9398 7.2419,3.9325 7.2419,6.8421 0,2.4512 -2.222,4.391 -5.1905,4.391 -3.709,0 -6.2719,-1.7693 -8.6114,-3.5328 -0.5114,-0.3997 -1.4813,-0.3997 -1.9398,0.3998 l -2.0515,3.5327 c -0.5113,0.9111 -0.2821,1.252 0.2822,1.7105 1.6517,1.4284 5.3608,4.4498 12.5439,4.4498 8.0413,0 13.1142,-5.4196 13.1142,-11.2919 0,-7.3594 -6.3896,-10.6629 -11.9151,-12.8908 z"
     class="st0" /><path
     inkscape:connector-curvature="0"
     inkscape:export-filename="/home/amber/Desktop/NEW BIZ/Final logos/pink round with text.png"
     inkscape:export-ydpi="300"
     inkscape:export-xdpi="300"
     style="fill:#ffffff;fill-opacity:1;stroke-width:1.18089759"
     id="path968-0-3-7-2-7-1"
     d="m 348.51028,-106.9137 c -0.024,0.041 -0.053,0.088 -0.076,0.1293 0.01,0 0.01,-0.01 0.012,-0.01 -0.01,0 -0.01,0.01 -0.012,0.01 0.024,-0.041 0.047,-0.082 0.076,-0.1293 z"
     class="st0" /><path
     inkscape:connector-curvature="0"
     inkscape:export-filename="/home/amber/Desktop/NEW BIZ/Final logos/pink round with text.png"
     inkscape:export-ydpi="300"
     inkscape:export-xdpi="300"
     style="fill:#ffffff;fill-opacity:1;stroke-width:1.18089759"
     id="path970-4-6-1-4-0-0"
     d="m 348.43978,-106.7902 c 0.01,0 0.01,-0.01 0.012,-0.01 0,-0.01 0,-0.012 0.01,-0.018 -0.01,0.012 -0.012,0.018 -0.018,0.024 z"
     class="st0" /><path
     inkscape:connector-curvature="0"
     inkscape:export-filename="/home/amber/Desktop/NEW BIZ/Final logos/pink round with text.png"
     inkscape:export-ydpi="300"
     inkscape:export-xdpi="300"
     style="fill:#ffffff;fill-opacity:1;stroke-width:1.18089759"
     id="path972-4-3-1-0-3-4"
     d="m 348.48088,-106.8138 c -0.012,0.01 -0.018,0.012 -0.029,0.018 -0.059,0.2763 -0.1176,0.5585 -0.1822,0.8347 0.029,0.018 0.065,0.035 0.094,0.047 0.2234,-0.382 0.4526,-0.77 0.7759,-1.3167 -0.1764,0.1117 -0.3115,0.194 -0.4232,0.2646 -0.088,0.059 -0.1646,0.1058 -0.2351,0.1528 z"
     class="st0" /><path
     inkscape:connector-curvature="0"
     inkscape:export-filename="/home/amber/Desktop/NEW BIZ/Final logos/pink round with text.png"
     inkscape:export-ydpi="300"
     inkscape:export-xdpi="300"
     style="fill:#ffffff;fill-opacity:1;stroke-width:1.18089759"
     id="path974-4-3-5-6-4-2"
     d="m 348.42798,-106.7844 c 0.01,0 0.01,-0.01 0.012,-0.01 0.01,-0.01 0.012,-0.018 0.018,-0.024 -0.01,0.01 -0.029,0.029 -0.029,0.029 z"
     class="st0" /><path
     inkscape:connector-curvature="0"
     inkscape:export-filename="/home/amber/Desktop/NEW BIZ/Final logos/pink round with text.png"
     inkscape:export-ydpi="300"
     inkscape:export-xdpi="300"
     style="fill:#ffffff;fill-opacity:1;stroke-width:1.18089759"
     id="path976-47-4-9-2-6-7"
     d="m 255.82378,-92.547509 c 0.012,-1.4343 0.035,-2.8686 0.047,-4.3087 0.012,-2.145495 0.029,-4.285191 0.024,-6.430691 0,-0.6818 -0.1,-1.3578 -0.1058,-2.0397 -0.012,-0.9699 0.018,-1.9339 0.024,-2.9038 0,-0.4702 -0.018,-0.9405 -0.035,-1.4049 -0.035,-0.9287 -0.094,-1.8575 -0.1058,-2.7862 -0.01,-0.7171 0.047,-1.4401 0.065,-2.1573 0.035,-1.3755 -0.1234,-2.7509 0,-4.1323 0.041,-0.4291 -0.094,-0.87 -0.082,-1.305 0.024,-0.8288 0.1176,-1.6576 0.1352,-2.4864 0.041,-1.9574 0.076,-3.9207 0.076,-5.884 0,-2.5394 -0.041,-5.0787 -0.053,-7.624 -0.01,-1.881 0,-3.762 0.012,-5.643 0.01,-0.964 0.029,-1.9339 0.035,-2.8979 0,-1.5401 0,-3.0743 -0.012,-4.6143 -0.01,-0.3645 -0.076,-0.7289 -0.071,-1.0934 0.01,-1.5871 0.1587,-3.1742 -0.1176,-4.7554 -0.029,-0.1763 0.029,-0.3644 0.041,-0.5467 0.041,-0.623 0.1117,-1.252 0.1058,-1.8751 -0.01,-0.5643 -0.1528,-1.1345 -0.1528,-1.6988 0.01,-1.1168 0.094,-2.2337 0.1176,-3.3564 0.029,-1.3637 0.194,-2.7333 -0.1176,-4.0912 -0.018,-0.071 0.01,-0.1528 0.018,-0.2292 0.076,-0.3997 0.2234,-0.8053 0.2293,-1.205 0.053,-2.8744 0.094,-5.7547 0.1116,-8.6291 0.012,-1.593 -0.018,-3.186 -0.035,-4.779 -0.01,-0.5995 -0.035,-1.1991 -0.018,-1.8046 0.029,-0.964 0.1117,-1.9221 0.1293,-2.8861 0.024,-1.6694 0.01,-3.3447 0.012,-5.0141 0.01,-1.2814 0.018,-2.5628 0.024,-3.8443 0,-0.5995 -0.029,-1.1991 -0.024,-1.7987 0.012,-1.2285 0.076,-2.457 0.059,-3.6856 -0.024,-1.4225 -0.1,-2.8509 -0.1821,-4.2734 -0.053,-0.9934 0.2703,-1.9985 -0.1,-2.9861 -0.035,-0.088 0.018,-0.2057 0.023,-0.3115 0.094,-1.5871 0.2586,-3.1742 0.2762,-4.7613 0.035,-3.6092 0.01,-7.2242 0,-10.8393 -0.01,-2.557 -0.01,-5.1199 -0.018,-7.6768 -0.01,-1.0934 -0.071,-2.1926 -0.071,-3.2859 -0.01,-1.6459 0.035,-3.2977 0.029,-4.9435 -0.01,-0.9111 -0.1234,-1.8281 -0.082,-2.7393 0.047,-1.0698 0.1,-2.1278 -0.1352,-3.1859 -0.024,-0.1 -0.012,-0.2057 0,-0.3115 0.1117,-1.0346 0.1823,-2.0691 -0.035,-3.1037 -0.047,-0.2234 -0.012,-0.4703 0,-0.7054 0.029,-0.5173 0.094,-1.0345 0.094,-1.5459 0.012,-1.352 -0.018,-2.7099 0.01,-4.0618 0.029,-1.8046 0.964,-27.7625 1.0111,-29.5671 0.024,-0.9405 -0.024,-1.8869 0.065,-2.8215 0.1704,-1.8927 0.4584,-3.7796 0.6054,-5.6782 0.1469,-1.9046 0.1999,-3.815 0.2469,-5.7254 0.035,-1.3343 -0.012,-2.6686 -0.029,-3.9971 -0.012,-1.1521 0,-2.2983 -0.041,-3.4505 -0.041,-1.2755 -0.1352,-2.5452 -0.2058,-3.8207 -0.065,-1.2874 -0.3115,-2.5453 -0.77,-3.7621 -0.3762,-0.9934 -1.0816,-1.5635 -2.2572,-1.5812 -0.4056,-0.01 -0.8112,-0.1411 -1.2168,-0.2233 -0.3761,-0.076 -0.7465,-0.1823 -1.1286,-0.2352 -0.6289,-0.082 -1.0992,0.3116 -1.6341,0.5055 -1.1874,0.4292 -1.8928,1.2932 -2.3983,2.3219 -0.1705,0.3468 -0.1646,0.7642 -0.335,1.111 -0.4938,0.9875 -0.4645,2.0632 -0.6526,3.0978 -0.1234,0.6701 0.053,1.3813 0.053,2.0808 0.01,0.7054 0.1823,1.4108 -0.01,2.1162 -0.047,0.1704 -0.065,0.3526 -0.047,0.5231 0.1235,1.1286 0.2998,2.2513 0.388,3.3799 0.1,1.2462 -0.3997,2.4865 -0.029,3.7385 0.029,0.094 -0.035,0.2058 -0.035,0.3057 -0.024,0.8641 -0.047,1.734 -0.047,2.5981 0,0.2293 0.2234,0.5467 0.1234,0.6701 -0.3996,0.482 -0.1645,1.017 -0.2233,1.5225 -0.059,0.4879 -0.1587,1.0051 -0.041,1.4695 0.1116,0.435 0.1411,0.7994 -0.047,1.205 -0.059,0.1293 -0.041,0.3174 0,0.4644 0.1998,0.6936 0.1058,1.3872 0.029,2.0809 -0.018,0.1293 -0.053,0.2939 0.012,0.382 0.2174,0.2998 0.082,0.5996 0.059,0.8994 -0.024,0.3644 -0.029,0.723 -0.041,1.0874 -0.012,0.3645 -0.8935,24.8822 -0.8935,25.2408 -0.01,0.6524 0,1.299 -0.01,1.9515 0,0.4409 0,0.8817 -0.012,1.3167 -0.012,0.5408 -0.1352,1.0992 -0.029,1.6224 0.094,0.4879 0.1411,0.964 0.147,1.4578 0.012,2.1808 0.1058,4.3616 -0.012,6.5482 -0.047,0.917 -0.035,1.8458 0.035,2.7627 0.1058,1.3696 -0.094,2.7393 0.082,4.103 0.012,0.076 -0.029,0.1528 -0.035,0.2292 -0.041,0.8759 -0.094,1.7517 -0.1117,2.6276 -0.024,1.0639 -0.024,2.1278 -0.012,3.1977 0.012,1.0698 0.059,2.1337 0.082,3.2036 0.01,0.3291 -0.1294,0.7053 0,0.9698 0.3585,0.7172 -0.4115,1.4637 0.141,2.1514 0.012,0.018 -0.071,0.082 -0.076,0.1294 -0.024,0.1939 -0.041,0.3938 -0.059,0.5878 -0.018,0.2527 -0.035,0.5114 -0.047,0.7641 -0.012,0.2293 -0.094,0.4762 -0.029,0.6878 0.1529,0.4879 0.088,0.964 0.082,1.4519 -0.018,1.1932 0.029,2.3865 0.012,3.5798 -0.01,0.5055 -0.1645,1.011 0.1588,1.4813 -0.3174,0.7171 -0.1058,1.4695 -0.147,2.2043 -0.059,1.0639 0.029,2.1337 0.029,3.2035 0,0.4115 -0.1176,0.823 -0.1234,1.2403 -0.012,0.9288 0.065,1.8634 0.024,2.7921 -0.059,1.3461 0.041,2.6805 0.1058,4.0207 0.029,0.6172 0.024,1.2403 0.029,1.8575 0,0.053 -0.041,0.1 -0.041,0.1528 -0.059,0.9523 -0.1176,1.9045 -0.1764,2.8568 0,0.047 0.041,0.1 0.047,0.1469 0.1411,0.8406 0.2704,1.6753 0.1646,2.5335 -0.053,0.435 0.035,0.8817 0.059,1.3285 0.012,0.2351 0.1176,0.5055 0.029,0.6995 -0.3056,0.6466 -0.035,1.2461 0.1,1.8575 0.024,0.1117 0.041,0.2762 -0.024,0.3527 -0.3056,0.382 -0.1998,0.7994 -0.1705,1.2109 0.035,0.4349 0.1058,0.8758 0.1058,1.3108 0,0.2527 -0.1939,0.529 -0.1351,0.7524 0.1763,0.6348 0.1528,1.2697 0.018,1.881 -0.1058,0.4761 -0.041,0.9229 0.024,1.3872 0.024,0.1822 0.065,0.3645 0.059,0.5467 -0.029,1.399 -0.035,2.8039 -0.1176,4.2029 -0.053,0.964 0.1411,1.9162 0.047,2.892 -0.082,0.8406 0.1352,1.7164 0.024,2.5805 -0.024,0.1764 0,0.3586 0.024,0.5349 0.035,0.2763 0.1647,0.5526 0.1352,0.8171 -0.1881,1.4989 -0.035,2.9978 -0.047,4.4909 -0.01,0.8288 0.029,1.6576 0.065,2.4806 0.018,0.4584 0.1999,0.9463 0.082,1.3637 -0.194,0.6818 -0.088,1.3461 -0.094,2.0162 -0.01,1.0345 -0.012,2.0691 -0.012,3.0978 0,0.5114 0.029,1.0286 0.018,1.54 -0.018,0.7701 -0.082,1.546 -0.088,2.316 -0.012,1.2227 0.01,2.4453 0.024,3.668 0.035,2.2043 0.088,4.4086 0.1353,6.6188 0.035,1.7046 0.076,3.4093 0.1058,5.1139 0.018,1.0581 0.01,2.1103 0.023,3.1684 0.018,1.0639 0.071,2.122 0.071,3.1859 0,1.5636 -0.071,3.1272 -0.053,4.6908 0.029,2.2101 0.1116,4.4203 0.1645,6.6364 0.029,1.2285 0,2.457 0.07,3.6797 0.053,0.9229 0.1175,1.8457 0.065,2.7745 -0.029,0.5408 -0.012,1.0874 0.018,1.6282 0.065,1.2227 0.1529,2.4453 0.2234,3.6739 0.041,0.7288 0.065,1.4577 0.094,2.1866 0.041,1.111 0.094,2.222 0.1177,3.3388 0.029,1.3814 0.024,2.7627 0.047,4.1441 0.024,1.2579 0.065,2.51 0.094,3.767896 0.029,1.169695 0.041,2.333595 0.065,3.503295 0.01,0.2469 0.035,0.4997 0.029,0.7466 -0.018,0.6466 -0.065,1.2932 -0.082,1.9398 -0.029,1.0698 -0.053,2.1337 -0.076,3.2035 -0.018,0.676 -0.053,1.3579 -0.041,2.0339 0.01,0.2175 0.076,0.4937 0.2234,0.6407 0.77,0.7465 1.5518,1.4872 2.7039,1.7282 0.5702,0.1175 1.0933,0.024 1.5813,-0.2058 0.088,-0.2468 0.1705,-0.4585 0.2116,-0.5701 0.4349,-0.053 0.9052,0.024 1.0816,-0.1588 0.3644,-0.3703 0.7641,-0.3703 1.2932,-0.3409 0.1763,-0.3409 0.4173,-0.6289 0.4643,-0.9405 0.1705,-1.1286 0.582,-2.2278 0.4409,-3.3976 -0.071,-0.4114 -0.071,-0.8346 -0.071,-1.2461 z"
     class="st0" /><path
     inkscape:connector-curvature="0"
     inkscape:export-filename="/home/amber/Desktop/NEW BIZ/Final logos/pink round with text.png"
     inkscape:export-ydpi="300"
     inkscape:export-xdpi="300"
     style="fill:#ffffff;fill-opacity:1;stroke-width:1.18089759"
     id="path978-6-4-7-9-36-4"
     d="m 232.32298,-89.990509 c 0.01,-1.4696 0.035,-2.9332 0.041,-4.4028 0.012,-2.1866 0.024,-4.379195 0.012,-6.565791 -0.01,-0.6937 -0.1058,-1.3873 -0.1175,-2.0868 -0.018,-0.9875 0.018,-1.975 0.018,-2.9626 0,-0.482 -0.018,-0.9581 -0.041,-1.4401 -0.035,-0.9464 -0.1058,-1.8986 -0.1177,-2.845 -0.012,-0.7348 0.047,-1.4695 0.071,-2.2043 0.035,-1.4049 -0.1351,-2.8098 -0.012,-4.2205 0.041,-0.4409 -0.1,-0.8935 -0.088,-1.3344 0.024,-0.8464 0.1176,-1.6929 0.1352,-2.5452 0.041,-2.0044 0.076,-4.0089 0.071,-6.0075 -0.01,-2.5981 -0.053,-5.1903 -0.071,-7.7885 -0.012,-1.9221 -0.01,-3.8443 0,-5.7664 0.01,-0.9876 0.029,-1.9751 0.029,-2.9626 0,-1.5695 -0.01,-3.1448 -0.024,-4.7143 -0.01,-0.3703 -0.082,-0.7465 -0.076,-1.1168 0.01,-1.6224 0.1645,-3.2389 -0.1293,-4.8554 -0.035,-0.1763 0.029,-0.3703 0.041,-0.5584 0.041,-0.6407 0.1175,-1.2756 0.1117,-1.9163 -0.01,-0.576 -0.1646,-1.158 -0.1646,-1.734 0.01,-1.1404 0.094,-2.2866 0.1234,-3.427 0.029,-1.3931 0.2057,-2.7921 -0.1293,-4.1793 -0.018,-0.071 0.01,-0.1587 0.018,-0.2352 0.082,-0.4114 0.2351,-0.8229 0.2469,-1.2344 0.053,-2.939 0.088,-5.8781 0.1058,-8.8172 0.012,-1.6282 -0.024,-3.2565 -0.041,-4.8847 -0.01,-0.6113 -0.041,-1.2285 -0.024,-1.8399 0.029,-0.9816 0.1176,-1.9633 0.1293,-2.9508 0.024,-1.7046 0,-3.4152 0,-5.1199 0,-1.3108 0.018,-2.6216 0.018,-3.9265 0,-0.6114 -0.029,-1.2286 -0.024,-1.8399 0.012,-1.252 0.076,-2.51 0.053,-3.762 -0.029,-1.4578 -0.1117,-2.9097 -0.1998,-4.3616 -0.059,-1.0169 0.288,-2.0397 -0.1117,-3.0507 -0.035,-0.094 0.018,-0.2117 0.024,-0.3175 0.1,-1.6223 0.2703,-3.2388 0.288,-4.8612 0.035,-3.6914 -0.01,-7.3829 -0.018,-11.0744 -0.01,-2.6158 -0.012,-5.2315 -0.029,-7.8473 -0.01,-1.1169 -0.076,-2.2396 -0.082,-3.3564 -0.01,-1.6812 0.035,-3.3682 0.024,-5.0493 -0.01,-0.9347 -0.1352,-1.8693 -0.094,-2.798 0.047,-1.0934 0.1,-2.1749 -0.147,-3.2506 -0.024,-0.1 -0.012,-0.2117 -0.01,-0.3175 0.1117,-1.058 0.194,-2.1102 -0.041,-3.1683 -0.053,-0.2292 -0.012,-0.482 0,-0.7171 0.029,-0.529 0.094,-1.0522 0.1,-1.5812 0.012,-1.3814 -0.024,-2.7686 0,-4.15 0.029,-1.8457 0.9817,-28.362 1.0287,-30.2078 0.024,-0.964 -0.024,-1.928 0.065,-2.8861 0.1764,-1.9339 0.482,-3.862 0.6349,-5.8018 0.1528,-1.9456 0.2057,-3.8972 0.2527,-5.8546 0.035,-1.3637 -0.018,-2.7215 -0.035,-4.0853 -0.012,-1.1756 -0.01,-2.3512 -0.047,-3.5269 -0.047,-1.3049 -0.1528,-2.604 -0.2233,-3.903 -0.071,-1.3167 -0.3351,-2.5982 -0.8288,-3.8443 -0.3998,-1.017 -1.1463,-1.5989 -2.4042,-1.6165 -0.435,-0.01 -0.8641,-0.147 -1.2991,-0.2293 -0.3997,-0.076 -0.7994,-0.1881 -1.1992,-0.241 -0.67,-0.088 -1.1638,0.3174 -1.7399,0.5114 -1.2638,0.435 -0.8641,1.3167 -1.3931,2.3689 -0.1763,0.3527 -0.1704,0.7818 -0.3527,1.1345 -0.5231,1.0051 -0.4879,2.1102 -0.6877,3.1624 -0.1293,0.6819 0.059,1.4167 0.065,2.122 0.01,0.723 0.194,1.446 -0.01,2.1632 -0.047,0.1704 -0.065,0.3585 -0.047,0.5349 0.1352,1.1521 0.3233,2.2983 0.4173,3.4563 0.1058,1.2697 -0.4173,2.5394 -0.029,3.8208 0.029,0.094 -0.035,0.2116 -0.041,0.3116 -0.024,0.8876 -0.047,1.7693 -0.047,2.6569 0,0.2351 0.241,0.5584 0.1352,0.6818 -0.4232,0.4938 -0.1704,1.0405 -0.2351,1.5519 -0.059,0.4996 -0.1705,1.0287 -0.041,1.4989 0.1234,0.4467 0.147,0.8171 -0.047,1.2285 -0.065,0.1352 -0.041,0.3233 0,0.4762 0.2175,0.7112 0.1175,1.4166 0.029,2.1279 -0.018,0.1293 -0.059,0.2997 0.012,0.3938 0.2292,0.3056 0.088,0.6113 0.065,0.9229 -0.024,0.3703 -0.035,0.7406 -0.047,1.1109 -0.012,0.3703 -0.9111,25.4171 -0.917,25.7874 -0.01,0.6642 0,1.3285 0,1.9927 0,0.4467 0,0.8994 -0.012,1.3461 -0.012,0.5525 -0.141,1.1227 -0.029,1.6576 0.1,0.4997 0.1528,0.9876 0.1587,1.4931 0.018,2.2278 0.1176,4.4556 0,6.6893 -0.053,0.9405 -0.035,1.8869 0.041,2.8215 0.1117,1.399 -0.094,2.798 0.094,4.1911 0.012,0.076 -0.029,0.1587 -0.035,0.2352 -0.041,0.8934 -0.094,1.7869 -0.1117,2.6804 -0.024,1.0874 -0.024,2.1749 -0.012,3.2623 0.012,1.0934 0.065,2.1808 0.088,3.2742 0.01,0.335 -0.1352,0.7171 0.01,0.9934 0.3821,0.7347 -0.435,1.4989 0.1529,2.1984 0.012,0.018 -0.076,0.088 -0.082,0.1352 -0.029,0.1998 -0.041,0.3997 -0.059,0.5996 -0.018,0.2586 -0.035,0.5172 -0.053,0.7818 -0.018,0.2351 -0.1,0.4878 -0.029,0.6995 0.1586,0.4937 0.1,0.9816 0.088,1.4812 -0.018,1.2168 0.035,2.4395 0.018,3.6562 -0.01,0.5173 -0.1764,1.0346 0.1704,1.5166 -0.3409,0.7289 -0.1117,1.5048 -0.1528,2.2513 -0.065,1.0875 0.035,2.1808 0.035,3.2742 0,0.4232 -0.1234,0.8405 -0.1293,1.2638 -0.01,0.9522 0.071,1.9045 0.029,2.8509 -0.059,1.3754 0.047,2.7392 0.1175,4.1088 0.035,0.6348 0.029,1.2638 0.035,1.8986 0,0.053 -0.041,0.1 -0.047,0.1528 -0.065,0.9699 -0.1234,1.9457 -0.1822,2.9156 0,0.047 0.041,0.1 0.053,0.1528 0.1528,0.8582 0.288,1.7106 0.1822,2.5864 -0.053,0.4468 0.035,0.9052 0.065,1.3579 0.012,0.241 0.1293,0.5172 0.029,0.7112 -0.3232,0.6642 -0.035,1.2697 0.1117,1.8987 0.029,0.1175 0.041,0.2821 -0.029,0.3644 -0.3233,0.388 -0.2116,0.8171 -0.1764,1.2403 0.041,0.4467 0.1117,0.8935 0.1176,1.3402 0,0.2586 -0.2057,0.5349 -0.141,0.77 0.1881,0.6525 0.1646,1.2991 0.024,1.9222 -0.1117,0.4879 -0.041,0.9464 0.024,1.4166 0.024,0.1881 0.071,0.3703 0.065,0.5584 -0.029,1.4343 -0.035,2.8686 -0.1176,4.297 -0.059,0.9875 0.1528,1.9574 0.053,2.9567 -0.088,0.8582 0.1469,1.7517 0.029,2.6393 -0.024,0.1763 0,0.3644 0.024,0.5466 0.041,0.2822 0.1764,0.5643 0.141,0.8347 -0.1939,1.5283 -0.029,3.0625 -0.041,4.5908 -0.01,0.8465 0.035,1.6929 0.07,2.5335 0.024,0.4703 0.2175,0.9699 0.088,1.3931 -0.2057,0.6937 -0.088,1.3755 -0.094,2.0574 -0.01,1.058 -0.012,2.1102 -0.012,3.1683 0,0.5232 0.035,1.0463 0.024,1.5753 -0.018,0.7877 -0.088,1.5754 -0.088,2.3689 -0.01,1.2521 0.01,2.4982 0.029,3.7503 0.041,2.2513 0.1,4.5085 0.1529,6.7598 0.041,1.74 0.088,3.4858 0.1176,5.2257 0.018,1.0757 0.012,2.1573 0.029,3.233 0.018,1.0874 0.076,2.169 0.082,3.2565 0,1.5988 -0.071,3.1977 -0.047,4.7965 0.035,2.2572 0.1293,4.5203 0.1881,6.7775 0.035,1.2521 0.01,2.51 0.082,3.7562 0.059,0.9463 0.1293,1.8868 0.076,2.8332 -0.035,0.5526 -0.01,1.111 0.024,1.6635 0.071,1.2521 0.1645,2.5041 0.241,3.7503 0.047,0.7465 0.071,1.4872 0.1,2.2337 0.047,1.1345 0.1,2.2748 0.1292,3.4093 0.029,1.4107 0.024,2.8215 0.053,4.2381 0.024,1.281496 0.076,2.562896 0.1059,3.850191 0.029,1.1933 0.047,2.3865 0.076,3.5798 0.01,0.2528 0.041,0.5114 0.035,0.7642 -0.024,0.6642 -0.065,1.3225 -0.088,1.9809 -0.035,1.0933 -0.053,2.1808 -0.076,3.2741 -0.018,0.6936 -0.059,1.3873 -0.041,2.075 0.01,0.2234 0.076,0.5055 0.241,0.6583 0.8171,0.7642 0.4997,1.5225 1.7282,1.7694 0.6054,0.1175 1.1639,0.029 1.6812,-0.2058 0.094,-0.2468 0.1763,-0.4702 0.2233,-0.5819 0.4644,-0.053 0.9641,0.024 1.1521,-0.1587 0.388,-0.3762 0.8112,-0.3762 1.3755,-0.3468 0.1822,-0.3468 0.4467,-0.6407 0.4938,-0.9582 0.1763,-1.1521 0.6172,-2.2748 0.4643,-3.4681 -0.041,-0.4467 -0.041,-0.8758 -0.035,-1.299 z"
     class="st0" /><path
     inkscape:connector-curvature="0"
     inkscape:export-filename="/home/amber/Desktop/NEW BIZ/Final logos/pink round with text.png"
     inkscape:export-ydpi="300"
     inkscape:export-xdpi="300"
     style="fill:#ffffff;fill-opacity:1;stroke-width:1.18089759"
     sodipodi:nodetypes="ccccscccccccccccsccccccccccccscccccccccccccccccscccccccccccccccscccccccccsccccsssccccccccccccccccccccsccccccccccccccccccccccccccccccccccccccccccccccccccccc"
     id="path980-3-3-7-9-334-0"
     d="m 200.36358,-310.2796 c -0.01,1.4577 -0.029,2.9214 -0.035,4.3792 -0.01,2.1808 -0.012,4.3557 0.01,6.5365 0.01,0.6936 0.1175,1.3813 0.1293,2.0749 0.018,0.9817 -0.012,1.9692 -0.012,2.9509 0,0.4761 0.024,0.9522 0.047,1.4342 0.041,0.9464 0.1175,1.8869 0.1351,2.8333 0.012,0.7348 -0.047,1.4637 -0.065,2.1984 -0.035,1.399 0.1588,2.798 0.024,4.197 -0.041,0.435 0.1059,0.8876 0.1,1.3285 -0.024,0.8464 -0.1234,1.687 -0.141,2.5335 -0.041,1.9926 -0.071,3.9853 -0.059,5.9839 0.012,2.5864 0.071,5.1669 0.094,7.7533 0.018,1.9162 0.018,3.8266 0.012,5.7429 0,0.9816 -0.029,1.9633 -0.024,2.9449 0.01,1.5636 0.018,3.1272 0.035,4.6908 0.01,0.3703 0.088,0.7407 0.088,1.111 0,1.6106 -0.1646,3.2271 0.1528,4.8377 0.035,0.1763 -0.035,0.3703 -0.047,0.5525 -0.041,0.6349 -0.1234,1.2697 -0.1117,1.9045 0.012,0.5761 0.1822,1.1522 0.1822,1.7282 -0.01,1.1345 -0.1,2.2749 -0.1234,3.4093 -0.029,1.3873 -0.2116,2.7804 0.1469,4.1618 0.018,0.071 0,0.1528 -0.018,0.2292 -0.088,0.4115 -0.2527,0.8171 -0.2585,1.2285 -0.047,2.9274 -0.076,5.8488 -0.088,8.7761 -0.01,1.6224 0.035,3.2389 0.059,4.8612 0.01,0.6113 0.047,1.2227 0.029,1.834 -0.029,0.9816 -0.1235,1.9574 -0.1352,2.9332 -0.018,1.6988 0.012,3.3976 0.012,5.0963 0,1.305 -0.012,2.6099 -0.01,3.909 0,0.6113 0.035,1.2226 0.029,1.834 -0.012,1.2461 -0.076,2.4982 -0.047,3.7444 0.035,1.446 0.1293,2.8979 0.2233,4.3439 0.065,1.011 -0.3056,2.0338 0.1293,3.039 0.041,0.094 -0.018,0.2116 -0.024,0.3174 -0.1058,1.6106 -0.2821,3.2271 -0.2939,4.8377 -0.029,3.6739 0.029,7.3477 0.047,11.0215 0.018,2.604 0.029,5.2081 0.059,7.8121 0.012,1.1109 0.088,2.2278 0.094,3.3388 0.012,1.6752 -0.024,3.3505 -0.012,5.0258 0.01,0.9287 0.1469,1.8633 0.1058,2.7862 -0.047,1.0875 -0.1,2.1632 0.1705,3.2389 0.024,0.1 0.018,0.2116 0.01,0.3174 -0.1175,1.0522 -0.1998,2.0985 0.053,3.1565 0.053,0.2293 0.018,0.4762 0.01,0.7172 -0.029,0.5231 -0.1,1.0463 -0.1058,1.5753 -0.012,1.3755 0.029,2.7569 0.012,4.1323 -0.023,1.834 0.1704,28.2327 0.1293,30.0667 -0.024,0.9582 0.035,1.9222 -0.059,2.8685 -0.1881,1.9281 0.05,3.7948 -0.1092,5.7228 -0.1587,1.934 -0.2116,3.8796 -0.2586,5.8253 -0.029,1.351896 0.029,2.709791 0.047,4.067691 0.018,1.1697 0.012,2.3394 0.059,3.5092 0.053,1.2991 0.1705,2.5923 0.2469,3.8854 0.082,1.3109 0.3704,2.5864 0.8994,3.8267 0.4349,1.0111 -0.467,1.6425 0.885,1.666 0.4644,0.01 0.9288,0.147 1.3931,0.2293 0.4291,0.076 0.8583,0.194 1.2932,0.2469 0.7172,0.088 1.252,-0.3116 1.8634,-0.5056 1.3579,-0.4291 1.011,-1.3049 1.5753,-2.3512 0.1882,-0.3527 0.1823,-0.7818 0.3763,-1.1286 0.5583,-0.9993 0.5172,-2.0985 0.7288,-3.1448 0.1352,-0.6819 -0.065,-1.4049 -0.071,-2.1161 -0.01,-0.7172 -0.2174,-1.4343 0,-2.1514 0.053,-0.1705 0.071,-0.3586 0.047,-0.535 -0.147,-1.1462 -0.3527,-2.2924 -0.4585,-3.438695 -0.1175,-1.2638 0.4409,-2.527596 0.018,-3.803096 -0.029,-0.094 0.041,-0.2058 0.041,-0.3116 0.018,-0.8817 0.047,-1.7634 0.041,-2.6451 0,-0.2293 -0.2586,-0.5584 -0.1469,-0.6819 0.4526,-0.4937 0.1822,-1.0345 0.2468,-1.5459 0.059,-0.4997 0.1764,-1.0228 0.041,-1.4931 -0.1293,-0.4467 -0.1645,-0.817 0.047,-1.2226 0.071,-0.1352 0.047,-0.3233 -0.01,-0.4703 -0.2351,-0.7054 -0.1293,-1.4107 -0.041,-2.1161 0.018,-0.1293 0.059,-0.2998 -0.012,-0.388 -0.2468,-0.3056 -0.094,-0.6113 -0.076,-0.917 0.024,-0.3703 0.035,-0.7347 0.047,-1.1051 0.012,-0.3703 0.9111,-25.2995 0.9111,-25.6639 0,-0.6584 -0.01,-1.3226 -0.01,-1.9809 0,-0.4468 -0.01,-0.8935 0.01,-1.3402 0.012,-0.5526 0.147,-1.1169 0.029,-1.6518 -0.1116,-0.4996 -0.1704,-0.9817 -0.1762,-1.4872 -0.024,-2.216 -0.1412,-4.438 -0.018,-6.654 0.053,-0.9347 0.035,-1.8752 -0.053,-2.8098 -0.1235,-1.3931 0.094,-2.7803 -0.1117,-4.1735 -0.012,-0.076 0.035,-0.1587 0.035,-0.2351 0.041,-0.8876 0.1,-1.7811 0.1175,-2.6687 0.018,-1.0815 0.018,-2.169 0,-3.2506 -0.018,-1.0874 -0.076,-2.169 -0.1058,-3.2565 -0.012,-0.3291 0.147,-0.7171 -0.01,-0.9875 -0.4114,-0.7289 0.4644,-1.4872 -0.1705,-2.1867 -0.018,-0.018 0.082,-0.088 0.088,-0.1352 0.029,-0.1998 0.047,-0.3997 0.059,-0.5995 l 0.053,-0.7759 c 0.018,-0.2352 0.1058,-0.482 0.029,-0.6995 -0.1763,-0.4938 -0.1058,-0.9817 -0.1,-1.4754 0.018,-1.2109 -0.041,-2.4277 -0.029,-3.6386 0.01,-0.5114 0.1882,-1.0287 -0.1881,-1.5107 0.3645,-0.7289 0.1176,-1.493 0.1588,-2.2396 0.065,-1.0815 -0.047,-2.1749 -0.047,-3.2565 0,-0.4173 0.1293,-0.8405 0.1351,-1.2579 0.01,-0.9464 -0.076,-1.8927 -0.035,-2.8391 0.059,-1.3696 -0.059,-2.7275 -0.141,-4.0912 -0.041,-0.629 -0.035,-1.2579 -0.041,-1.8928 0,-0.053 0.047,-0.1 0.047,-0.1528 0.065,-0.9699 0.1293,-1.9339 0.188,-2.9038 0.01,-0.047 -0.047,-0.1 -0.053,-0.1528 -0.1645,-0.8524 -0.3174,-1.7047 -0.1998,-2.5746 0.059,-0.4409 -0.041,-0.8994 -0.071,-1.352 -0.018,-0.241 -0.1352,-0.5173 -0.035,-0.7113 0.341,-0.6583 0.035,-1.2638 -0.1235,-1.8869 -0.029,-0.1175 -0.047,-0.2762 0.029,-0.3585 0.3469,-0.3821 0.2293,-0.8112 0.1882,-1.2344 -0.041,-0.4468 -0.1235,-0.8876 -0.1293,-1.3344 0,-0.2586 0.2233,-0.5349 0.1528,-0.7641 -0.1999,-0.6466 -0.1823,-1.2932 -0.029,-1.9163 0.1175,-0.4879 0.041,-0.9405 -0.029,-1.4108 -0.029,-0.1822 -0.076,-0.3703 -0.071,-0.5525 0.029,-1.4225 0.029,-2.8509 0.1116,-4.2734 0.059,-0.9816 -0.1704,-1.9457 -0.065,-2.9391 0.088,-0.8523 -0.1645,-1.7458 -0.035,-2.6275 0.024,-0.1763 0,-0.3644 -0.029,-0.5467 -0.047,-0.2762 -0.194,-0.5643 -0.1586,-0.8347 0.2057,-1.5224 0.023,-3.0448 0.035,-4.5673 0.01,-0.8406 -0.041,-1.6811 -0.082,-2.5217 -0.024,-0.4644 -0.2352,-0.964 -0.1,-1.3872 0.2175,-0.6937 0.094,-1.3638 0.094,-2.0515 0.01,-1.0522 0.01,-2.1044 0,-3.1507 0,-0.5231 -0.041,-1.0463 -0.029,-1.5636 0.018,-0.7876 0.088,-1.5694 0.088,-2.3571 0.01,-1.2462 -0.018,-2.4865 -0.047,-3.7326 -0.053,-2.2455 -0.1235,-4.485 -0.1823,-6.7305 -0.047,-1.7341 -0.1058,-3.4681 -0.1411,-5.2022 -0.024,-1.0757 -0.018,-2.1455 -0.041,-3.2212 -0.024,-1.0815 -0.094,-2.1631 -0.094,-3.2388 -0.01,-1.593 0.065,-3.1801 0.035,-4.7731 -0.041,-2.2513 0.6878,-12.3676 0.7466,-13.3081 0.035,-0.5525 0.01,-1.1051 -0.029,-1.6576 -0.076,-1.2462 -0.1881,-2.4923 -0.2704,-3.7385 -0.047,-0.7407 -0.082,-1.4813 -0.1176,-2.222 -0.053,-1.1286 -0.1175,-2.263 -0.1469,-3.3916 -0.035,-1.4049 -0.035,-2.8098 -0.071,-4.2147 -0.029,-1.2755 -0.088,-2.5511 -0.1235,-3.8325 -0.035,-1.1874 -0.059,-2.3748 -0.094,-3.5622 -0.01,-0.2527 -0.047,-0.5114 -0.035,-0.7641 0.018,-0.6584 0.065,-1.3167 0.088,-1.9751 0.029,-1.0874 0.053,-2.1749 0.076,-3.2565 0.018,-0.6877 0.059,-1.3754 0.041,-2.0691 -0.01,-0.2233 -0.088,-0.4996 -0.2586,-0.6524 -0.8817,-0.7642 -1.7517,-1.7635 -3.0919,-1.7694 -3.8972,-0.012 -5.2375,1.9046 -5.2845,2.222 -0.1881,1.1462 -0.6525,2.2631 -0.4879,3.4505 0.07,0.4408 0.07,0.864 0.07,1.2873 z"
     class="st0" /><path
     inkscape:connector-curvature="0"
     inkscape:export-filename="/home/amber/Desktop/NEW BIZ/Final logos/pink round with text.png"
     inkscape:export-ydpi="300"
     inkscape:export-xdpi="300"
     style="fill:#ffffff;fill-opacity:1;stroke-width:1.18089759"
     sodipodi:nodetypes="ccccscccccccccscsccccccccccccssccccccccccccccccccccccccccccccccccccccsccccccccscsccccccccscccccccccccsccccccccccccccccccccccccccccccccccscccccccccccccccccccccccc"
     id="path982-1-9-6-0-43-3"
     d="m 187.12009,-307.0899 c 0.01,1.4343 0.035,2.8744 0.041,4.3087 0.012,2.1455 0.018,4.2851 0.01,6.4307 -0.01,0.6818 -0.1058,1.3578 -0.1175,2.0397 -0.018,0.9699 0.018,1.9339 0.018,2.9038 0,0.4702 -0.024,0.9405 -0.041,1.4048 -0.041,0.9288 -0.1058,1.8575 -0.1176,2.7863 -0.012,0.7171 0.047,1.4401 0.065,2.1573 0.035,1.3754 -0.1411,2.7509 -0.012,4.1323 0.041,0.4291 -0.1,0.87 -0.088,1.3049 0.024,0.8288 0.1176,1.6577 0.1352,2.4865 0.041,1.9633 0.071,3.9207 0.065,5.884 -0.01,2.5394 -0.059,5.0846 -0.076,7.624 -0.012,1.8809 -0.01,3.762 0,5.6488 0,0.964 0.029,1.934 0.029,2.898 0,1.54 -0.012,3.0742 -0.024,4.6143 -0.01,0.3644 -0.082,0.7289 -0.082,1.0933 0,1.5871 0.1646,3.1742 -0.1352,4.7554 -0.035,0.1764 0.029,0.3645 0.041,0.5467 0.041,0.6231 0.1176,1.2521 0.1058,1.8751 -0.012,0.5643 -0.1646,1.1345 -0.1646,1.6988 0.01,1.1169 0.094,2.2337 0.1176,3.3564 0.029,1.3638 0.1998,2.7334 -0.1293,4.0912 -0.018,0.071 0,0.1528 0.018,0.2293 0.082,0.3997 0.2351,0.8053 0.2409,1.205 0.053,2.8744 0.082,5.7547 0.1,8.635 0.01,1.5929 -0.029,3.1859 -0.047,4.7789 -0.01,0.5996 -0.041,1.1991 -0.024,1.8046 0.029,0.964 0.1177,1.9221 0.1294,2.8862 0.018,1.6693 0,3.3446 0,5.014 0,1.2814 0.012,2.5629 0.012,3.8443 0,0.5996 -0.029,1.1991 -0.024,1.7987 0.012,1.2286 0.076,2.4571 0.053,3.6856 -0.029,1.4225 -0.1117,2.8509 -0.1998,4.2734 -0.059,0.9934 0.288,1.9986 -0.1117,2.992 -0.035,0.088 0.018,0.2057 0.024,0.3115 0.1,1.5871 0.2703,3.1742 0.2821,4.7613 0.029,3.6092 -0.012,7.2243 -0.024,10.8393 -0.012,2.5629 -0.018,5.1199 -0.035,7.6827 -0.012,1.0934 -0.076,2.1926 -0.082,3.2859 -0.01,1.6459 0.029,3.2976 0.018,4.9435 -0.01,0.9111 -0.1352,1.8281 -0.094,2.7392 0.047,1.0699 0.1,2.1279 -0.1528,3.186 -0.024,0.1 -0.018,0.2057 -0.01,0.3115 0.1117,1.0346 0.1881,2.0691 -0.047,3.1037 -0.053,0.2292 -0.018,0.4702 0,0.7054 0.029,0.5172 0.094,1.0345 0.1,1.5459 0.012,1.352 -0.024,2.7098 0,4.0618 0.029,1.8046 0.9639,27.7625 1.0051,29.5671 0.023,0.9405 -0.029,1.8868 0.059,2.8215 0.1764,1.8927 0.4762,3.7796 0.629,5.6782 0.1529,1.9046 0.2057,3.815 0.2528,5.7253 0.029,1.334396 -0.024,2.668691 -0.035,4.003091 -0.012,1.1521 -0.01,2.2983 -0.047,3.4504 -0.047,1.2756 -0.1529,2.5511 -0.2234,3.8208 -0.07,1.2873 -0.3351,2.5452 -0.8288,3.762 -0.3998,0.9934 -1.1521,1.5636 -2.4042,1.5871 -0.435,0.01 0.2822,0.1411 -0.1469,0.2234 -0.3997,0.076 -0.7995,0.1881 -1.1992,0.241 -0.6701,0.088 -1.1638,-0.3057 -1.7399,-0.4997 -1.2638,-0.4291 -2.0103,-1.2873 -2.5393,-2.3159 -0.1764,-0.3468 -0.1705,-0.7642 -0.3528,-1.111 -0.5231,-0.9817 -0.4879,-2.0632 -0.6818,-3.0978 -0.1294,-0.6701 0.059,-1.3813 0.065,-2.0808 0.01,-0.7054 0.1999,-1.4108 0,-2.1162 -0.047,-0.1704 -0.065,-0.3527 -0.047,-0.5231 0.1352,-1.1286 0.3233,-2.2514 0.4174,-3.379995 0.1058,-1.2461 -0.4174,-2.486396 -0.024,-3.738496 0.029,-0.094 -0.035,-0.2057 -0.041,-0.3056 -0.018,-0.8641 -0.047,-1.7341 -0.047,-2.5982 0,-0.2292 0.2409,-0.5466 0.1351,-0.6701 -0.4232,-0.482 -0.1705,-1.0169 -0.2292,-1.5165 -0.059,-0.4879 -0.1646,-1.0052 -0.041,-1.4696 0.1234,-0.4349 0.1528,-0.7994 -0.047,-1.205 -0.065,-0.1293 -0.041,-0.3174 0,-0.4643 0.2175,-0.6937 0.1176,-1.3873 0.035,-2.0809 -0.018,-0.1293 -0.059,-0.2939 0.012,-0.3821 0.2292,-0.2998 0.088,-0.5996 0.065,-0.8993 -0.024,-0.3645 -0.029,-0.723 -0.041,-1.0875 -0.012,-0.3644 -0.8935,-24.8822 -0.8935,-25.2407 -0.01,-0.6525 0,-1.2991 0,-1.9516 0,-0.4408 0,-0.8817 -0.01,-1.3167 -0.012,-0.5407 -0.141,-1.0992 -0.029,-1.6223 0.1058,-0.4879 0.1528,-0.964 0.1587,-1.4637 0.018,-2.1808 0.1235,-4.3616 0.01,-6.5482 -0.047,-0.917 -0.035,-1.8458 0.041,-2.7628 0.1117,-1.3696 -0.094,-2.7392 0.1,-4.1029 0.012,-0.076 -0.029,-0.1528 -0.035,-0.2293 -0.041,-0.8758 -0.094,-1.7516 -0.1117,-2.6275 -0.024,-1.0639 -0.024,-2.1279 -0.01,-3.1977 0.018,-1.0698 0.065,-2.1338 0.094,-3.2036 0.01,-0.3292 -0.1351,-0.7054 0.01,-0.9699 0.3821,-0.7171 -0.4349,-1.4636 0.1529,-2.1514 0.012,-0.018 -0.076,-0.082 -0.082,-0.1293 -0.029,-0.194 -0.041,-0.3938 -0.059,-0.5878 -0.018,-0.2528 -0.035,-0.5114 -0.053,-0.7642 -0.018,-0.2292 -0.1,-0.4761 -0.029,-0.6877 0.1587,-0.4879 0.1,-0.964 0.088,-1.4519 -0.018,-1.1933 0.035,-2.3865 0.024,-3.5798 -0.01,-0.5055 -0.1764,-1.011 0.1704,-1.4813 -0.3409,-0.7171 -0.1117,-1.4695 -0.1528,-2.2043 -0.059,-1.0639 0.035,-2.1337 0.035,-3.2036 0,-0.4114 -0.1234,-0.8229 -0.1234,-1.2402 -0.01,-0.9288 0.071,-1.8634 0.029,-2.7922 -0.059,-1.3461 0.047,-2.6804 0.1234,-4.0206 0.035,-0.6172 0.029,-1.2403 0.035,-1.8575 0,-0.053 -0.041,-0.1 -0.047,-0.1528 -0.065,-0.9523 -0.1234,-1.9046 -0.1764,-2.8568 0,-0.047 0.041,-0.1 0.053,-0.147 0.1529,-0.8405 0.2881,-1.6752 0.1823,-2.5334 -0.053,-0.435 0.035,-0.8876 0.065,-1.3285 0.012,-0.2351 0.1293,-0.5055 0.029,-0.6995 -0.3233,-0.6466 -0.035,-1.2462 0.1117,-1.8575 0.029,-0.1117 0.041,-0.2763 -0.029,-0.3527 -0.3233,-0.3821 -0.2116,-0.7994 -0.1764,-1.2109 0.041,-0.435 0.1117,-0.8758 0.1176,-1.3108 0,-0.2528 -0.2058,-0.529 -0.1411,-0.7524 0.1881,-0.6348 0.1646,-1.2697 0.024,-1.8869 -0.1117,-0.4761 -0.041,-0.9228 0.024,-1.3872 0.024,-0.1822 0.071,-0.3645 0.065,-0.5467 -0.029,-1.399 -0.029,-2.8039 -0.1117,-4.2029 -0.059,-0.964 0.1528,-1.9162 0.053,-2.892 -0.088,-0.8406 0.1469,-1.7164 0.029,-2.5805 -0.024,-0.1764 0,-0.3586 0.024,-0.5349 0.041,-0.2763 0.1764,-0.5526 0.1469,-0.8171 -0.1939,-1.4989 -0.029,-2.9978 -0.041,-4.4909 -0.01,-0.8288 0.035,-1.6576 0.071,-2.4806 0.024,-0.4584 0.2175,-0.9463 0.088,-1.3637 -0.2057,-0.6818 -0.088,-1.3461 -0.094,-2.0162 -0.01,-1.0345 -0.012,-2.0691 -0.01,-3.0978 0,-0.5114 0.035,-1.0286 0.024,-1.54 -0.018,-0.7701 -0.082,-1.546 -0.088,-2.316 -0.01,-1.2227 0.012,-2.4453 0.035,-3.668 0.047,-2.2043 0.1058,-4.4086 0.1588,-6.6188 0.041,-1.7046 0.088,-3.4093 0.1234,-5.1139 0.024,-1.0581 0.012,-2.1103 0.029,-3.1684 0.018,-1.0639 0.082,-2.122 0.082,-3.1859 0,-1.5636 -0.07,-3.1272 -0.041,-4.6908 0.035,-2.2101 0.1293,-4.4262 0.194,-6.6364 0.035,-1.2285 0.01,-2.457 0.082,-3.6797 0.059,-0.9229 0.1293,-1.8457 0.076,-2.7745 -0.029,-0.5408 -0.01,-1.0874 0.024,-1.6282 0.071,-1.2227 -0.2176,-2.649 -0.147,-3.8716 0.047,-0.7289 0.071,-1.4578 0.1,-2.1867 0.047,-1.1109 0.1058,-2.2219 0.1293,-3.3388 0.029,-1.3813 0.029,-2.7627 0.059,-4.144 0.024,-1.258 0.076,-2.51 0.1117,-3.7679 0.029,-1.1698 0.053,-2.3337 0.076,-3.5034 0.01,-0.2469 0.041,-0.4996 0.035,-0.7465 -0.018,-0.6466 -0.065,-1.2932 -0.082,-1.9398 -0.029,-1.0698 -0.053,-2.1338 -0.076,-3.2036 -0.018,-0.676 -0.053,-1.3578 -0.041,-2.0338 0.01,-0.2175 0.082,-0.4938 0.241,-0.6408 0.8171,-0.7524 2.0398,-1.2952 3.2625,-1.5362 0.6054,-0.1176 1.1638,-0.029 1.6811,0.1998 0.094,0.2469 0.1763,0.4585 0.2234,0.5643 0.4643,0.053 0.964,-0.024 1.1521,0.1528 0.3879,0.3704 -0.3409,0.3704 0.2292,0.3351 0.1822,0.3409 0.4409,0.6231 0.4938,0.9405 0.1763,1.1286 0.6113,2.2278 0.4585,3.3976 -0.07,0.3997 -0.07,0.817 -0.07,1.2285 z"
     class="st0" /><g
     inkscape:export-filename="/home/amber/Desktop/NEW BIZ/Final logos/pink round with text.png"
     inkscape:export-ydpi="300"
     inkscape:export-xdpi="300"
     style="fill:#ffffff;fill-opacity:1;stroke-width:2.00895882"
     transform="matrix(0.58781381,0,0,0.58781381,157.71759,-434.54941)"
     id="g986-7-7-7-8-9-2"><path
       inkscape:connector-curvature="0"
       sodipodi:nodetypes="cccccccccccccccccscccsccccccccccsccscccccccccccccccccccccccccsccccccccccscccccccccccccccccccccccccccccccccccccccccccccccccccccccccccsccccccccccccccsscccccccccccccccccccccccccccccccccccccccccccccccccccccccccccccccccccccccccccccccccccccccccccccccccccccccccc"
       style="fill:#ffffff;fill-opacity:1;stroke-width:2.00895882"
       id="path984-5-2-3-1-72-8"
       d="m 332.01,538.16 c -0.43,-0.42 -0.83,-0.81 -1.23,-1.21 0.4,-0.31 0.26,-0.53 -0.1,-0.73 -1.11,-0.64 -2.22,-1.29 -3.33,-1.93 -0.36,-0.21 -0.88,-0.29 -1.07,-0.59 -0.9,-1.45 -2.34,-1.84 -3.86,-2.19 -0.79,-0.18 -1.85,-0.07 -2.01,-1.38 -0.65,0.83 -0.98,1.72 -2.26,1.37 -0.46,-0.13 -1.21,0.49 -1.71,0.91 -0.38,0.33 -0.52,0.91 -0.83,1.33 -0.85,1.11 -1.8,1.96 -3.34,2.19 -3.15,0.48 -6.27,1.21 -9.41,1.77 -1.62,0.29 -3.27,0.45 -4.91,0.62 -1.67,0.17 -3.36,0.22 -5.02,0.45 -2.21,0.3 -4.4,0.79 -6.62,1.09 -2.56,0.34 -5.14,0.51 -7.7,0.86 -3.05,0.41 -6.08,0.95 -9.12,1.4 -2,0.3 -4.01,0.48 -5.81,1.53 -0.24,0.14 -0.68,0.12 -0.93,0 -0.91,-0.46 -1.7,-0.23 -2.49,0.28 -0.56,0.36 -1.14,0.61 -1.84,0.23 -0.24,-0.13 -0.62,-0.08 -0.92,-0.02 -0.85,0.17 -1.68,0.41 -2.53,0.59 -0.23,0.05 -0.54,0.07 -0.73,-0.04 -1.1,-0.6 -1.26,-0.57 -2.19,0.41 -0.16,0.17 -0.54,0.31 -0.71,0.23 -0.22,-0.1 -0.32,-0.44 -0.37,-0.51 -0.76,0.1 -1.43,0.19 -2.14,0.29 0.01,0.32 0.01,0.54 0.04,0.75 0.02,0.24 0.07,0.48 0.12,0.79 -1.59,-0.51 -1.59,-0.51 -2.69,0.85 0.45,0.51 0.76,1.04 1.66,1.09 0.85,0.05 1.64,0.42 2.48,-0.14 0.18,-0.12 0.64,0.17 0.93,0.26 -0.3,0.31 -0.69,0.53 -0.73,0.8 -0.04,0.2 0.35,0.67 0.57,0.69 1.21,0.11 2.41,0.05 3.54,-0.72 1.28,1.44 2.97,1.64 4.85,1.34 0.75,-0.12 1.52,-0.7 2.35,-0.08 0.16,0.12 0.56,0.02 0.8,-0.09 1.05,-0.49 2.18,-0.08 3.24,-0.33 0.48,-0.11 0.95,-0.22 1.56,-0.36 0.38,0.61 1.1,0.78 2,0.54 0.42,-0.11 0.87,-0.09 1.31,-0.11 2.37,-0.12 4.73,-0.23 7.1,-0.35 3.02,-0.15 6.04,-0.39 9.06,-0.45 3.13,-0.07 6.27,0.03 9.4,0.05 0.47,0 0.95,0.03 1.59,0.06 -0.74,0.72 -1.28,1.4 -1.97,1.89 -2.84,2 -5.64,4.07 -8.6,5.88 -4.24,2.59 -8.47,5.21 -13.12,7.04 -4.38,1.73 -8.84,3.26 -13.57,3.47 -3.74,0.16 -7.51,0.11 -11.24,-0.16 -12.54,-0.89 -22.35,-7.03 -30.44,-16.27 -3.49,-3.98 -5.99,-8.62 -8.17,-13.41 -1.44,-3.17 -2.61,-6.46 -3.33,-9.85 -1.11,-5.23 -2.06,-10.5 -2.95,-15.78 -0.55,-3.25 -1.02,-6.53 -1.24,-9.82 -0.24,-3.63 -0.25,-7.28 -0.17,-10.92 0.07,-3.31 0.4,-6.62 0.62,-9.92 0.02,-0.29 0.78561,-5.30862 0.82561,-5.48862 1.39104,2.76165 3.46602,8.37353 4.97558,11.30009 1.11462,2.16091 2.3536,3.77052 4.2236,5.33052 1.83,1.52 3.90521,2.78801 5.99521,3.85801 0.78,0.4 1.73,0.47 2.6,0.71 1.29,0.35 2.58,0.93 3.88,0.99 1.4,0.06 2.74,-0.33 4.2,0.32 0.84,0.37 2.1,-0.23 3.18,-0.39 0.32,-0.05 5.41,-1.09 0.95,-0.12 1.6,0.18 3.14,0.16 4.46,-0.97 0.18,-0.16 0.51,-0.18 0.77,-0.21 0.82,-0.07 2.39,-0.73 3.11,-1.26 0.29,-0.22 0.69,-0.27 1.03,-0.44 0.38,-0.19 0.73,-0.42 1.09,-0.63 0.36,-0.22 0.72,-0.45 1.08,-0.66 0.42,-0.25 0.9,-0.43 1.27,-0.74 0.88,-0.75 1.7,-1.55 2.86,-1.9 0.39,-0.12 0.83,-0.46 1.01,-0.82 0.51,-1.03 1.37,-1.53 2.36,-1.94 0.34,-0.14 0.63,-0.44 0.89,-0.71 1.76,-1.86 3.63,-3.59 5.26,-5.61 2.52,-3.13 4.83,-6.39 6.66,-9.94 1.88,-3.67 3.34,-7.53 4.19,-11.59 0.61,-2.91 1.17,-5.84 1,-8.85 -0.06,-0.99 -0.19,-2.05 0.1,-2.95 0.71,-2.25 0.17,-4.51 0.01,-6.69 -0.18,-2.53 -1.12,-5.02 -1.85,-7.49 -1.31,-4.44 -4.01,-8.14 -6.71,-11.78 -1.22,-1.64 -2.99,-2.86 -4.53,-4.26 -0.2,-0.18 -0.43,-0.4 -0.68,-0.46 -1.38,-0.34 -2.31,-1.71 -3.85,-1.67 -0.13,0 -0.29,-0.13 -0.4,-0.24 -1.53,-1.61 -3.69,-1.67 -5.62,-2.24 -0.71,-0.21 -1.47,-0.1 -2.28,-0.35 -1.89,-0.59 -3.87,-0.94 -5.95,-0.9 -2.44,0.04 -4.81,0.42 -7.15,0.89 -2.9,0.57 -5.69,1.6 -8.41,2.83 -3.72,1.69 -7.38,3.45 -10.53,6.11 -0.39,0.33 -0.91,0.5 -1.52,0.82 -0.05,-2.5 -0.08,-4.75 -0.14,-7 -0.1,-4.39 -0.04,-8.79 -0.41,-13.15 -0.14,-1.67 -0.13,-3.35 -0.25,-5.02 -0.19,-2.12 -0.41,-2.39 -0.57,-4.51 -0.26,-3.49 -0.48,-6.99 -0.72,-10.49 -0.3,-4.51 -0.61,-9.02 -0.9,-13.54 -0.18,-2.73 -0.36,-5.47 -0.5,-8.21 -0.14,-2.73 -0.24,-5.46 -0.32,-8.19 -0.06,-2.23 -0.03,-4.46 -0.1,-6.7 -0.09,-2.73 -0.27,-5.46 -0.36,-8.2 -0.12,-3.73 -0.19,-7.47 -0.3,-11.2 -0.05,-1.72 -0.22,-3.43 -0.22,-5.15 0.01,-3.44 0.12,-6.88 0.16,-10.32 0.03,-2.89 1.61,-52.69 1.7,-55.58 0.14,-4.56 0.39,-9.11 0.61,-13.66 0.14,-2.89 0.35,-5.77 0.5,-8.66 0.14,-2.68 0.3,-5.36 0.38,-8.05 0.09,-2.84 0.1,-5.68 0.13,-8.52 0.04,-3.29 0.08,-6.58 0.1,-9.87 0.01,-1.87 -0.81,-3.45 -1.86,-4.91 -0.71,-0.99 -1.39,-1.16 -2.51,-0.7 -1.45,0.6 -3.2,0.46 -4.35,1.77 -2.01,0.31 -2.5,1.71 -2.82,3.49 -0.17,0.91 -0.34,1.84 -0.5,2.76 -0.3,1.7 -0.69,3.39 -0.96,5.09 -0.11,0.68 0.18,1.46 -0.03,2.09 -0.76,2.34 -0.8,4.77 -1.1,7.16 -0.38,3.01 -0.6,6.03 -0.9,9.05 -0.18,1.73 -0.41,3.46 -0.59,5.19 -0.13,1.26 -0.23,2.52 -0.31,3.79 -0.12,1.86 -0.21,3.72 -0.34,5.58 -0.12,1.73 -0.3,3.46 -0.39,5.19 -0.13,2.51 -0.24,5.02 -0.29,7.53 -0.01,0.67 -1.35,48.24 -1.36,48.91 -0.01,0.68 -0.28,1.36 -0.4,2.04 -0.02,0.12 0.19,0.27 0.18,0.4 -0.04,0.85 -0.1,1.7 -0.18,2.54 -0.05,0.54 -0.29,1.13 -0.15,1.62 0.74,2.63 -0.31,5.32 0.33,7.94 -0.43,1.94 -0.38,3.85 -0.17,5.84 0.25,2.38 0.07,4.81 0.09,7.21 0.02,1.98 0.09,3.96 0.11,5.93 0.03,2.93 0.03,5.85 0.05,8.78 0.01,1.93 -0.06,3.86 0.03,5.78 0.18,3.58 0.63,7.16 0.64,10.73 0,3.2 0.44,6.36 0.51,9.54 0.03,1.74 0.25,3.47 0.39,5.2 0.07,0.88 -0.18,19.34 0.61,20.83 0.08,0.15 -0.18,5.49 -0.1,6.29 v 0 c 0.04,2.94 0.05,5.88 0.12,8.82 0.11,4.41 0.23,8.81 0.4,13.21 0.14,3.7 0.32,7.39 0.54,11.08 0.11,1.74 -0.05,3.39 -0.7,5.02 -1.17,2.95 -2.3,5.92 -3.37,8.9 -0.61,1.7 -1.14,3.43 -1.58,5.18 -0.84,3.36 -1.71,6.72 -2.35,10.14 -0.69,3.69 -0.97,7.38 -1.24,11.1 -0.13,1.7 -0.38,3.39 -0.48,5.09 -0.17,3.03 -0.49,6.08 -0.33,9.1 0.14,2.73 -0.17,5.45 0.52,8.22 0.74,2.95 0.67,6.09 1.1,9.12 0.4,2.83 0.97,5.64 1.5,8.46 0.47,2.49 0.92,4.99 1.51,7.45 0.6,2.48 1.36,4.93 2.08,7.38 1.55,5.34 4.09,10.24 6.82,15.04 1.17,2.06 2.48,4.05 3.93,5.92 1.43,1.85 2.62,3.96 4.75,5.18 0.05,0.03 0.1,0.06 0.13,0.11 1,1.77 2.58,2.93 4.13,4.14 1.38,1.07 2.68,2.23 4.01,3.35 0.72,0.6 1.43,1.22 2.19,1.77 0.58,0.42 1.19,0.87 1.86,1.06 0.87,0.26 1.54,0.78 2.27,1.26 1.2,0.78 2.17,2.17 3.93,1.65 0.14,-0.04 0.41,0.17 0.55,0.32 0.47,0.52 1.03,0.76 1.74,0.77 0.26,0 0.52,0.29 0.78,0.45 0.49,0.31 0.97,0.65 1.48,0.92 0.32,0.17 0.71,0.23 1.06,0.34 1.99,0.61 4.03,1.1 5.97,1.85 1.74,0.67 3.75,-0.42 5.35,0.93 0.17,0.14 0.54,0.02 0.81,0.07 1.95,0.37 3.94,0.31 5.9,0.38 3.57,0.13 7.16,-0.05 10.72,-0.3 1.02,-0.07 2.05,-0.34 3.1,-0.25 0.21,0.02 0.43,-0.09 0.64,-0.13 2.52,-0.49 4.99,-1.17 7.43,-2.01 2.04,-0.7 4.12,-1.31 6.12,-2.11 2.08,-0.83 4.1,-1.8 6.11,-2.78 0.93,-0.45 1.79,-1.07 2.69,-1.6 2.14,-1.26 4.29,-2.49 6.42,-3.76 0.37,-0.22 0.67,-0.57 1.03,-0.81 1.26,-0.83 2.53,-1.63 3.79,-2.45 0.1,0.52 0.02,0.82 -0.1,1.11 -1.61,3.68 -3.24,7.35 -4.83,11.04 -0.44,1.02 -1.26,1.96 -0.71,3.24 0.11,0.25 -0.18,0.73 -0.39,1.04 -0.4,0.59 -0.91,1.11 -1.29,1.71 -0.53,0.83 -1.03,1.69 -1.46,2.57 -0.48,0.98 -0.82,2.04 -1.33,3 -0.46,0.87 -1.15,1.62 -1.58,2.5 -0.32,0.65 -0.77,1.66 -0.5,2.1 0.66,1.09 0.55,2.13 0.4,3.23 0.88,0.44 1.94,0.57 1.97,1.91 0.01,0.38 0.52,0.75 0.81,1.13 0.5,-0.39 0.87,-0.67 1.44,-1.11 -0.04,1.06 -0.07,1.87 -0.1,2.85 0.56,-0.24 0.92,-0.39 1.3,-0.55 l -0.58,-0.87 c 0.54,-0.22 0.82,-0.24 0.99,0.31 0.33,1.07 1.56,1.43 2.21,1.3 1.49,-0.3 0.85,0.62 0.96,1.29 0.46,-0.36 0.88,-0.69 1.1,-0.86 0.78,-0.1 1.48,0.01 1.92,-0.28 0.96,-0.62 1.79,-1.45 2.69,-2.19 2.01,-1.65 3.53,-3.71 5.02,-5.82 -0.01,0 -0.01,0.01 -0.02,0.01 0.06,-0.08 0.11,-0.17 0.16,-0.25 0.22,-0.33 0.42,-0.68 0.61,-1.03 0.71,-1.33 1.32,-2.73 2.75,-3.54 0.12,-0.07 0.17,-0.27 0.24,-0.42 0.5,-1.05 1,-2.09 1.48,-3.15 1.17,-2.56 2.3,-5.13 3.49,-7.67 1.26,-2.68 2.59,-5.33 3.84,-8.01 1.26,-2.69 2.55,-5.37 3.67,-8.12 0.86,-2.11 2.21,-4.05 2.34,-6.43 0.01,-0.23 0.29,-0.45 0.45,-0.67 0.25,-0.36 0.56,-0.69 0.73,-1.08 0.72,-1.67 1.39,-3.36 2.11,-5.03 0.34,-0.79 0.77,-1.53 1.15,-2.31 0.55,-1.12 1.09,-2.25 1.62,-3.37 0.35,-0.75 0.69,-1.5 1.03,-2.25 0.04,-0.09 0,-0.2 0,-0.31 -0.19,-0.08 -0.38,-0.15 -0.65,-0.26 1.08,-1.35 0.72,-3.01 0.89,-4.53 z M 214.05,447.22 c 1.98,-3.66 4.43,-7.01 7.27,-10.05 3.81,-4.08 8.34,-7.17 13.66,-8.91 2.23,-0.73 4.55,-1.42 6.64,-0.95 3.49,0 6.46,0.68 9.2,2.28 3.07,1.8 5.19,4.45 6.67,7.6 1.76,3.75 2.55,7.7 2.4,11.89 -0.21,6.13 -1.79,11.88 -4.62,17.26 -1.09,2.07 -2.74,3.86 -4.26,5.67 -3.86,4.6 -8.51,8.14 -14.14,10.36 -4.43,1.75 -10.43,0.47 -13.72,-3.47 -2.48,-2.98 -4.2,-6.34 -5.52,-9.93 -1.61,-4.37 -2.76,-8.85 -3.37,-13.47 -0.28,-2.13 -0.5,-4.28 -0.64,-6.42 -0.04,-0.6 0.14,-1.31 0.43,-1.86 z m 108.4,85.91 c -0.14,-0.19 -0.31,-0.36 -0.39,-0.56 -0.03,-0.09 0.14,-0.26 0.31,-0.56 0.19,0.42 0.32,0.6 0.34,0.77 0.01,0.11 -0.16,0.24 -0.26,0.35 z"
       class="st0" /></g></g>


</svg>